<svg width="448" height="481" viewBox="0 0 448 481" fill="none" xmlns="http://www.w3.org/2000/svg">
<g clip-path="url(#clip0)">
<path d="M441.09 463.655C430.436 477.923 408.321 479.425 408.321 479.425C408.321 479.425 403.479 457.794 414.133 443.526C424.787 429.258 446.902 427.756 446.902 427.756C446.902 427.756 451.744 449.387 441.09 463.655Z" fill="#E6E6E6"/>
<path d="M386.817 469.019C393.847 478.434 408.441 479.425 408.441 479.425C408.441 479.425 411.636 465.151 404.606 455.736C397.575 446.322 382.982 445.331 382.982 445.331C382.982 445.331 379.787 459.604 386.817 469.019Z" fill="#E6E6E6"/>
<path d="M434.482 480.284H244.054V478.728H434.764L434.482 480.284Z" fill="#3F3D56"/>
<path d="M427.303 13.7437H0V251.134H427.303V13.7437Z" fill="#E6E6E6"/>
<path d="M23.3346 227.799H403.968V37.0786H23.3346V227.799Z" fill="white"/>
<path d="M426.679 0H0.624708V21.2402H426.679V0Z" fill="#46BC99"/>
<path d="M122.395 104.327H44.9302V159.301H122.395V104.327Z" fill="#E6E6E6"/>
<path d="M382.373 104.327H168.721V110.574H382.373V104.327Z" fill="#E6E6E6"/>
<path d="M382.373 129.315H168.721V135.562H382.373V129.315Z" fill="#E6E6E6"/>
<path d="M382.373 154.304H168.721V160.551H382.373V154.304Z" fill="#E6E6E6"/>
<path d="M312.558 255.769L310.474 267.752C310.474 267.752 300.575 295.364 303.18 321.413C305.785 347.462 307.869 365.696 307.869 365.696C307.869 365.696 300.054 431.34 303.18 454.785C303.18 454.785 311.516 466.246 322.457 454.264L330.792 367.78L339.649 306.304L347.464 375.074L352.674 453.222C352.674 453.222 359.967 461.036 370.908 454.264L369.866 365.697C369.866 365.697 379.244 290.675 377.681 284.423C376.118 278.171 365.698 253.685 365.698 253.685L312.558 255.769Z" fill="#2F2E41"/>
<path d="M307.348 455.306L307.869 466.246C307.869 466.246 299.928 478.631 309.827 478.631C309.926 478.631 309.729 478.631 309.827 478.631C316.986 478.608 323.456 481.83 322.61 474.721L321.415 464.683L319.331 453.743L307.348 455.306Z" fill="#2F2E41"/>
<path d="M367.719 455.306L367.198 466.246C367.198 466.246 375.139 478.631 365.24 478.631C365.141 478.631 365.338 478.631 365.24 478.631C358.082 478.608 351.612 481.83 352.458 474.721L353.653 464.683L355.737 453.743L367.719 455.306Z" fill="#2F2E41"/>
<path d="M336.784 165.378C345.991 165.378 353.455 157.914 353.455 148.707C353.455 139.499 345.991 132.035 336.784 132.035C327.576 132.035 320.112 139.499 320.112 148.707C320.112 157.914 327.576 165.378 336.784 165.378Z" fill="#9F616A"/>
<path d="M329.49 159.647C329.49 159.647 331.574 183.613 325.322 187.26C319.07 190.906 351.371 189.344 351.371 189.344C351.371 189.344 344.077 161.21 344.598 158.084L329.49 159.647Z" fill="#FFB8B8"/>
<path d="M361.009 175.016C361.009 175.016 340.17 165.639 310.995 175.016C310.995 175.016 298.231 178.403 296.668 182.571C295.105 186.739 314.121 234.409 312.037 242.744C310.783 247.854 310.431 253.143 310.995 258.374C310.995 258.374 356.842 252.122 367.782 256.811C367.782 256.811 363.614 243.265 364.656 233.888C365.698 224.51 374.555 180.747 374.555 180.747C374.555 180.747 369.866 176.058 361.009 175.016Z" fill="#46BC99"/>
<path d="M379.244 299.01C379.244 299.01 371.429 322.975 379.765 323.496C388.1 324.017 384.454 305.262 384.454 305.262L383.412 299.01H379.244Z" fill="#9F616A"/>
<path d="M363.614 183.873L374.555 180.748C374.555 180.748 380.807 185.436 380.807 191.688C380.807 197.94 379.765 238.056 379.765 238.056L387.579 297.969L375.597 302.137L361.53 237.535L363.614 183.873Z" fill="#46BC99"/>
<path d="M293.802 299.01C293.802 299.01 301.617 322.975 293.281 323.496C284.946 324.017 288.593 305.262 288.593 305.262L289.635 299.01H293.802Z" fill="#9F616A"/>
<path d="M309.432 183.873L298.491 180.748C298.491 180.748 292.24 185.436 292.24 191.688C292.24 197.94 293.281 238.056 293.281 238.056L285.467 297.969L297.449 302.137L311.516 237.535L309.432 183.873Z" fill="#46BC99"/>
<path d="M344.077 124.22C344.077 124.22 329.49 121.616 326.364 140.892C323.238 160.168 324.801 167.462 319.591 169.546C314.381 171.63 312.818 174.235 313.86 178.403C314.902 182.571 318.549 184.134 313.339 191.948C308.13 199.763 324.801 197.679 338.347 203.931C351.892 210.183 383.151 201.326 378.983 194.032C374.815 186.739 368.043 189.864 371.169 181.529C374.294 173.193 375.336 171.63 371.169 166.42C367.001 161.21 373.252 128.909 344.077 124.22Z" fill="#2F2E41"/>
</g>
<defs>
<clipPath id="clip0">
<rect width="448" height="480.283" fill="white"/>
</clipPath>
</defs>
</svg>
